<svg width="300" height="300" viewBox="0 0 300 300" fill="none" xmlns="http://www.w3.org/2000/svg">
<path fill-rule="evenodd" clip-rule="evenodd" d="M130.54 23.474C120.142 25.221 104.579 30.192 95.9829 34.511C87.3189 38.865 77.3759 48.188 73.3589 55.725C71.6339 58.961 69.4899 64.713 68.5939 68.506C65.1739 82.989 68.9078 106.147 77.6318 124.564C80.1348 129.848 82.1829 134.826 82.1829 135.628C82.1829 136.429 80.6169 138.914 78.7039 141.15C74.0199 146.622 66.8799 160.727 64.1919 169.818C59.9099 184.302 59.9399 207.053 64.2599 221.403C70.5709 242.37 84.8328 258.729 105.683 268.92C119.942 275.889 128.666 277.977 146.183 278.612C168.222 279.412 183.705 275.862 200.683 266.115C210.515 260.47 224.098 247.156 229.464 237.903C245.726 209.866 242.894 171.697 222.433 143.115C219.546 139.082 217.183 135.411 217.183 134.958C217.183 134.505 218.953 130.595 221.117 126.269C231.515 105.48 235.028 77.94 229.228 62.667C222.776 45.678 210.545 35.531 187.423 27.986C169.45 22.121 148.492 20.459 130.54 23.474ZM171.683 55.397C182.296 57.626 194.604 64.069 197.96 69.153C200.496 72.997 200.675 73.97 200.571 83.342C200.482 91.283 199.906 95.088 197.837 101.403C194.432 111.789 191.681 116.334 189.392 115.354C175.22 109.288 163.975 106.903 149.553 106.903C137.432 106.903 126.916 108.838 116.457 112.993C112.381 114.612 108.577 115.646 108.003 115.292C104.885 113.365 99.6339 96.657 98.5959 85.36C97.4679 73.088 100.831 66.649 111.08 61.455C117.221 58.344 128.25 55.041 136.244 53.921C144.538 52.758 162.721 53.516 171.683 55.397Z" fill="#0B0C0E"/>
<path fill-rule="evenodd" clip-rule="evenodd" d="M149.431 77.846C149.176 78.3114 148.903 78.9641 148.825 79.2966C148.573 80.3653 148.121 80.6096 146.395 80.6096C144.903 80.6096 144.82 80.6364 144.889 81.0996C144.929 81.3726 145.401 81.8989 145.953 82.2871C147.4 83.3035 147.499 83.5437 147.022 84.8709C146.605 86.0316 146.594 86.9473 146.995 87.0793C147.122 87.1208 147.767 86.7481 148.428 86.2509C149.09 85.7539 149.756 85.3471 149.91 85.3471C150.063 85.3471 150.756 85.7532 151.449 86.2495C153.455 87.6862 153.823 87.4204 152.962 85.1549C152.709 84.4908 152.562 83.7607 152.634 83.5324C152.707 83.3044 153.269 82.7566 153.883 82.3151C154.583 81.8125 155 81.3439 155 81.0612C155 80.6574 154.85 80.6096 153.584 80.6096C151.844 80.6096 151.261 80.2473 150.938 78.9656C150.619 77.7021 150.314 77 150.083 77C149.979 77 149.685 77.3808 149.431 77.846ZM171.175 79.0626C170.99 79.355 170.774 79.8119 170.695 80.0776C170.545 80.5832 169.706 80.9978 168.784 81.0231C167.759 81.0511 167.704 81.4687 168.625 82.228C169.462 82.9184 169.483 82.9693 169.341 84.0373C169.261 84.6417 169.254 85.2321 169.327 85.349C169.399 85.4667 169.936 85.2946 170.529 84.9634L171.601 84.3651L172.489 84.969C172.978 85.3011 173.456 85.5727 173.551 85.5727C173.801 85.5727 173.765 84.4896 173.498 83.9915C173.185 83.4061 173.58 82.6188 174.432 82.1294C175.373 81.5894 175.154 81.2343 173.709 80.9572C172.548 80.7346 172.468 80.6752 172.19 79.82C171.791 78.5977 171.572 78.4339 171.175 79.0626ZM127.953 79.3886C127.691 79.7214 127.477 80.1286 127.477 80.2937C127.477 80.6328 126.836 81.0355 126.339 81.008C126.158 80.9978 125.782 81.0057 125.503 81.0251C124.817 81.0732 124.837 81.8023 125.534 82.1755C126.299 82.5849 126.597 83.3531 126.34 84.2519C126.023 85.3562 126.386 85.5536 127.557 84.914L128.53 84.382L129.563 84.9873C130.68 85.6418 130.999 85.5152 130.637 84.5618C130.226 83.4826 130.366 82.9447 131.235 82.2472C131.697 81.8768 131.993 81.4752 131.907 81.3358C131.822 81.1988 131.301 81.0193 130.75 80.9365C129.655 80.7722 129.449 80.6035 129.129 79.6086C128.843 78.7215 128.524 78.662 127.953 79.3886Z" fill="#ED7035"/>
<path fill-rule="evenodd" clip-rule="evenodd" d="M136.564 147.929C128.349 148.789 115.155 152.742 109.069 156.167C106.683 157.51 104.867 159.397 104.449 160.966C102.811 167.119 97.983 171.386 91.023 172.834L88.046 173.453L88.023 207.304L88 241.156L92.847 242.388C98.544 243.836 102.108 247.053 103.949 252.409C105.145 255.887 106.025 256.6 112.8 259.574C123.124 264.105 131.229 266.034 143 266.762C160.75 267.859 177.264 265.027 189.75 258.744C194.169 256.521 195.501 255.334 195.504 253.616C195.513 248.077 202.588 241.88 208.901 241.88H211.5L211.625 229.63C211.694 222.892 211.802 207.498 211.865 195.419L211.98 173.458L208.99 172.836C201.723 171.325 195.513 165.56 195.504 160.315C195.494 154.993 166.337 146.587 149.372 147.016C146.417 147.09 140.654 147.502 136.564 147.929Z" fill="#1663AB"/>
<path fill-rule="evenodd" clip-rule="evenodd" d="M137.52 152.851C129.989 153.64 117.894 157.264 112.314 160.403C110.127 161.635 108.462 163.364 108.079 164.803C106.578 170.443 102.152 174.355 95.7713 175.682L93.0422 176.25L93.0211 207.282L93 238.315L97.4433 239.444C102.666 240.771 105.933 243.721 107.621 248.631C108.717 251.819 109.524 252.472 115.735 255.199C125.199 259.352 132.629 261.121 143.42 261.788C159.691 262.794 174.83 260.198 186.276 254.438C190.327 252.4 191.548 251.312 191.551 249.737C191.559 244.659 198.045 238.978 203.833 238.978H206.215L206.33 227.749C206.393 221.572 206.492 207.46 206.55 196.387L206.655 176.254L203.914 175.684C197.252 174.299 191.559 169.014 191.551 164.206C191.542 159.327 164.813 151.621 149.261 152.014C146.552 152.082 141.269 152.46 137.52 152.851Z" fill="white"/>
<path d="M100.621 179.019L100.621 179.019L98.5381 179.452L98.5192 207.257L98.5003 235.079L102.163 236.01C104.599 236.629 106.606 237.634 108.206 239.078C109.806 240.522 110.974 242.385 111.764 244.683C112.252 246.101 112.646 246.868 113.551 247.6C114.502 248.37 116.028 249.112 118.869 250.359C127.416 254.111 134.113 255.705 143.867 256.308C158.595 257.219 172.264 254.866 182.572 249.679L182.572 249.679C184.413 248.753 185.558 248.067 186.242 247.457C186.898 246.873 187.091 246.395 187.092 245.851C187.096 243.343 188.685 240.773 190.875 238.854C193.072 236.93 195.974 235.571 198.757 235.571H200.428L200.527 225.857C200.585 220.243 200.675 207.415 200.727 197.349L200.821 179.456L198.729 179.021C195.61 178.372 192.72 176.812 190.603 174.847C188.496 172.891 187.096 170.474 187.092 168.097C187.091 167.766 186.853 167.298 186.186 166.706C185.538 166.131 184.575 165.517 183.342 164.889C180.882 163.634 177.435 162.364 173.529 161.238C165.715 158.985 156.159 157.336 149.159 157.513L149.159 157.513C146.714 157.574 141.925 157.916 138.524 158.271L100.621 179.019ZM100.621 179.019C106.58 177.779 110.771 174.103 112.191 168.768C112.335 168.228 112.739 167.58 113.379 166.915C114.012 166.257 114.847 165.613 115.804 165.075M100.621 179.019L115.804 165.075M115.804 165.075C118.292 163.675 122.268 162.15 126.494 160.884M115.804 165.075L126.494 160.884M126.494 160.884C130.715 159.619 135.143 158.625 138.524 158.271L126.494 160.884Z" fill="white" stroke="#232323"/>
<rect x="74.4599" y="213.344" width="12.3434" height="10.7077" transform="rotate(16.0391 74.4599 213.344)" fill="#0B0C0E"/>
<rect x="83.9584" y="207" width="12.3434" height="10.7077" transform="rotate(16.0391 83.9584 207)" fill="#0B0C0E"/>
<rect x="84.9584" y="199" width="12.3434" height="10.7077" transform="rotate(16.0391 84.9584 199)" fill="#0B0C0E"/>
<rect x="83.967" y="199.509" width="13.0019" height="10.7077" transform="rotate(-2.53383 83.967 199.509)" fill="#0B0C0E"/>
<rect x="93" y="197" width="5" height="11" fill="white"/>
<rect width="12.2759" height="9.96732" transform="matrix(-0.977504 0.210915 0.251301 0.967909 227.266 214.546)" fill="#0B0C0E"/>
<rect width="12.2759" height="9.96732" transform="matrix(-0.966425 0.25695 0.296837 0.954928 217.472 208.46)" fill="#0B0C0E"/>
<rect width="12.2759" height="9.96732" transform="matrix(-0.966425 0.25695 0.296837 0.954928 216.472 201.061)" fill="#0B0C0E"/>
<rect width="13.0582" height="9.90523" transform="matrix(-0.999164 -0.0408923 -0.0477941 0.998857 217.464 201.532)" fill="#0B0C0E"/>
<rect width="3.80453" height="9.90523" transform="matrix(1 0 0.00690853 -0.999976 202.703 207.905)" fill="white"/>
<path fill-rule="evenodd" clip-rule="evenodd" d="M69.4137 194.648C69.4197 197.896 72.9638 202.962 77.3558 206C79.5438 207.514 81.3507 209.112 81.3717 209.553C81.4667 211.564 66.3018 216.222 59.6008 216.24C54.1328 216.255 54.8698 217.681 61.9668 220.82C66.3098 222.74 74.4958 224.644 78.7948 224.734C79.2808 224.744 81.7818 219.577 84.3518 213.252C89.1558 201.427 89.2638 201.316 94.5468 202.714C97.0278 203.371 97.1738 203.215 97.0178 200.082L96.8528 196.752L88.3808 196.027C83.7218 195.629 77.5478 194.682 74.6598 193.924C69.5528 192.583 69.4097 192.602 69.4137 194.648ZM223.91 194.811C220.61 195.555 214.873 196.184 211.16 196.208L204.41 196.252V200.252C204.41 204.791 204.437 204.807 208.489 202.711C210.128 201.864 211.871 201.419 212.363 201.723C212.855 202.027 214.027 204.633 214.968 207.514C217.569 215.475 222.16 225.252 223.298 225.252C228.894 225.252 242.045 220.602 244.369 217.802C245.495 216.444 245.112 216.237 241.282 216.134C238.878 216.068 236.609 216.056 236.242 216.106C235.009 216.274 222.925 212.069 221.659 211.031C220.71 210.253 221.525 209.022 225.046 205.923C230.69 200.955 234.521 193.079 231.16 193.354C230.473 193.411 227.21 194.066 223.91 194.811ZM86.9488 210.002C85.4788 213.715 82.8738 219.824 81.1588 223.579C78.5548 229.285 78.2778 230.556 79.4758 231.314C81.7738 232.768 92.3488 236.127 99.9228 237.808C139.424 246.577 177.384 245.344 213.66 234.115C219.023 232.455 223.41 230.712 223.41 230.242C223.41 229.773 221.67 225.87 219.543 221.57C217.416 217.27 214.905 211.389 213.963 208.502C213.02 205.615 211.932 203.252 211.545 203.252C211.158 203.252 208.296 204.146 205.186 205.24C185.314 212.224 168.172 214.678 144.228 213.968C125.437 213.41 118.876 212.287 101.854 206.711C96.0468 204.809 90.9188 203.252 90.4588 203.252C89.9988 203.252 88.4198 206.289 86.9488 210.002Z" fill="#ED7035"/>
<path fill-rule="evenodd" clip-rule="evenodd" d="M140.049 215.72C138.147 217.26 139.366 220.736 141.808 220.736C142.258 220.736 143.143 220.431 143.773 220.059C145.088 219.282 146.389 219.503 147.874 220.755L148.868 221.593L147.583 222.919C146.127 224.42 142.548 230.494 142.548 231.461C142.548 231.811 142.98 232.744 143.509 233.534C144.674 235.277 145.554 238.318 145.367 239.955C145.269 240.817 144.785 241.445 143.66 242.171C142.191 243.119 142.108 243.282 142.35 244.72C142.569 246.015 142.35 247 141.5 247C141 247 140.893 247.515 140.976 248.1C141.101 248.982 141.234 249 147.706 249H154.308V247.974C154.308 247.276 154.044 246.898 153.482 246.791C152.156 246.539 150.388 245.089 150.388 244.255C150.388 243.831 151.374 241.569 152.58 239.228C154.884 234.753 155.902 231.146 155.937 227.338C155.956 225.312 156.057 225.054 156.878 224.938C157.384 224.866 158.177 224.326 158.639 223.738C159.378 222.798 159.411 222.565 158.91 221.806C158.202 220.733 156.088 220.452 155.356 221.334C154.614 222.229 153.976 222.133 152.97 220.976C152.242 220.139 145.831 217 145 217C144.856 217 144.798 216.558 144.123 215.991C142.668 214.766 141.337 214.678 140.049 215.72ZM119.838 221.852C119.72 227.091 119.874 231.649 120.179 231.954C120.388 232.163 121.654 232.278 122.992 232.208L125.424 232.083V226.719V221.355L122.639 221.233C120.195 221.126 119.852 221.201 119.838 221.852ZM174.507 221.668C174.388 221.976 174.345 224.445 174.409 227.155L174.526 232.083H177.208H179.89V226.719V221.355L177.306 221.232C175.422 221.142 174.663 221.261 174.507 221.668ZM114.673 223.744C114.55 224.064 114.505 225.606 114.573 227.172L114.696 230.02H116.553H118.41V226.719V223.418L116.653 223.291C115.431 223.202 114.827 223.341 114.673 223.744ZM181.18 223.844C180.804 224.823 180.875 229.102 181.278 229.737C181.5 230.088 182.264 230.233 183.438 230.15L185.254 230.02V226.719V223.418L183.346 223.294C181.885 223.2 181.377 223.328 181.18 223.844ZM105 226.719V227.781L108.817 227.663C112.319 227.554 112.633 227.476 112.633 226.719C112.633 225.962 112.319 225.884 108.817 225.775L105 225.656V226.719ZM127.438 226.286C126.938 227.589 127.739 227.75 134.733 227.75H141.723V226.719V225.687H134.696C128.933 225.687 127.627 225.795 127.438 226.286ZM159.622 226.286C159.496 226.616 159.512 227.08 159.659 227.318C159.993 227.858 172.108 227.912 172.44 227.375C172.567 227.169 172.558 226.704 172.42 226.343C172.205 225.784 171.259 225.687 166.01 225.687C161.007 225.687 159.809 225.799 159.622 226.286ZM187.273 226.27C186.813 227.471 187.57 227.75 191.29 227.75C194.909 227.75 195.004 227.726 194.876 226.822C194.752 225.95 194.521 225.886 191.127 225.774C188.224 225.679 187.463 225.776 187.273 226.27ZM153.276 231.001C153.276 231.881 152.978 233.314 152.614 234.186L151.952 235.771L150.551 234.242C148.626 232.142 148.712 230.698 150.812 229.86C152.825 229.057 153.276 229.266 153.276 231.001ZM146.262 244.589C146.262 244.999 145.995 245.695 145.67 246.136C145.204 246.769 144.692 247.126 144.287 246.727C143.894 246.339 144.165 245.688 144.531 244.885C145.078 243.685 146.262 243.482 146.262 244.589Z" fill="black"/>
<path fill-rule="evenodd" clip-rule="evenodd" d="M92.3783 43.7122C87.1553 46.0842 81.4373 52.7962 79.3923 58.9532C76.7033 67.0482 78.0243 67.8472 82.3643 60.7512C84.5253 57.2172 89.1803 51.5142 92.7093 48.0762C99.3643 41.5922 99.2873 40.5742 92.3783 43.7122ZM117.434 129.718C96.6243 135.786 86.4453 148.425 82.4293 173.181C81.5223 178.772 83.6463 177.484 86.3693 170.791C93.0123 154.464 106.094 140.893 122.628 133.175C126.584 131.329 130.098 129.369 130.437 128.822C131.401 127.262 124.142 127.762 117.434 129.718Z" fill="white"/>
<path fill-rule="evenodd" clip-rule="evenodd" d="M147 190.943C147 203.647 147.237 205.977 148.582 206.493C149.452 206.827 152.152 207.1 154.582 207.1C158.642 207.1 159 206.895 159 204.57V202.04L161.997 204.256C164.062 205.782 166.88 206.608 171.054 206.91L177.113 207.349L176.807 201.974L176.5 196.6L171.697 196.293C168.788 196.107 166.686 195.446 166.368 194.616C166.079 193.863 168.392 189.859 171.508 185.719C174.624 181.578 176.883 177.72 176.528 177.145C176.173 176.57 173.239 176.1 170.009 176.1C164.527 176.1 163.982 176.316 161.827 179.343L159.517 182.587L159.003 179.593C158.509 176.721 158.256 176.588 152.744 176.3L147 176V190.943ZM156 183.515L156.5 189.43L160.814 183.265C164.876 177.46 165.361 177.1 169.123 177.1C172.045 177.1 172.92 177.436 172.382 178.35C171.978 179.038 169.781 182.075 167.5 185.1C165.219 188.125 163.005 191.191 162.579 191.913C162.122 192.687 162.507 194.003 163.517 195.119C164.459 196.16 167.204 197.308 169.615 197.67C173.63 198.272 174 198.57 174 201.214C174 203.851 173.695 204.1 170.468 204.1C168.525 204.1 165.451 203.48 163.636 202.721C161.821 201.963 159.36 200.102 158.168 198.586L156 195.83V199.965C156 204.024 155.936 204.1 152.5 204.1H149V190.537V176.973L152.25 177.287C155.449 177.595 155.508 177.692 156 183.515Z" fill="#ED7036"/>
<path fill-rule="evenodd" clip-rule="evenodd" d="M129.777 170.27C116.975 178.822 123.434 197.243 139.754 198.722C143.025 199.019 146.866 198.969 148.29 198.612C150.516 198.053 150.5 196.318 150.5 193C150.5 190.878 150.339 189.7 149.5 189C148.661 188.3 143 188.5 142 188.5C141 188.5 138 188.5 135.5 188C133 187.5 133 183.5 133 183.5C132.561 178.977 133.5 178 144.602 178C155.704 178 150.879 178 150.879 178V174.582C150.879 168.265 150.498 168 141.42 168C134.513 168 132.623 168.368 129.777 170.27ZM147.879 172.5V176H140.936C134.894 176 133.79 176.289 132.436 178.223C130.312 181.254 130.481 184.602 132.879 187C134.469 188.59 136.212 189 141.379 189L147 189.173V192.5V196H141.027C132.863 196 128.435 193.627 125.526 187.693C123.219 182.988 123.923 178.29 127.587 173.935C131.019 169.856 133.011 169.14 141.129 169.063L147.879 169V172.5Z" fill="#1D68AD"/>
<path fill-rule="evenodd" clip-rule="evenodd" d="M131.102 35.716C128.74 36.074 128.352 36.6 128.352 39.441C128.352 41.261 128.633 44.156 128.977 45.875C129.321 47.594 130.221 49 130.977 49C131.733 49 132.352 48.1 132.352 47C132.352 45.9 132.972 45 133.73 45C134.487 45 135.667 45.675 136.352 46.5C137.037 47.325 139.069 48 140.867 48C142.852 48 144.364 47.41 144.714 46.5C145.044 45.64 146.537 45 148.214 45C149.891 45 151.384 45.64 151.714 46.5C152.03 47.325 153.026 48 153.928 48C154.848 48 155.339 47.452 155.047 46.75C154.762 46.063 153.529 43.138 152.307 40.25C150.739 36.545 149.528 35 148.19 35C146.829 35 145.56 36.694 143.688 41.01C141.548 45.945 140.829 46.811 139.671 45.85C138.872 45.187 138.555 43.991 138.94 43.09C139.313 42.215 139.579 40.609 139.53 39.519C139.481 38.43 138.66 36.967 137.706 36.269C136.751 35.571 135.493 35.067 134.911 35.15C134.328 35.232 132.614 35.487 131.102 35.716ZM156.988 39.64C156.638 42.191 156.352 45.116 156.352 46.14C156.352 47.163 156.998 48 157.789 48C158.672 48 159.359 46.748 159.571 44.75L159.918 41.5L161.295 44.25C162.053 45.762 163.091 47 163.602 47C164.113 47 165.376 45.988 166.408 44.75L168.285 42.5L168.319 45.75C168.341 47.957 168.833 49 169.852 49C170.819 49 171.356 48.023 171.363 46.25C171.369 44.738 171.653 41.813 171.994 39.75C172.482 36.797 172.292 36 171.102 36C170.27 36 168.328 37.654 166.785 39.676L163.981 43.353L162.208 39.176C161.232 36.879 159.802 35 159.029 35C158.115 35 157.401 36.623 156.988 39.64ZM121.696 39.25C122.004 40.488 122.56 43.413 122.932 45.75C123.431 48.89 124.069 50 125.374 50C126.926 50 127.03 49.486 126.238 45.75C125.742 43.413 125.106 40.488 124.825 39.25C124.544 38.012 123.599 37 122.725 37C121.577 37 121.291 37.625 121.696 39.25ZM115.766 38.792C115.178 39.181 114.282 41.427 113.775 43.782L112.852 48.065L109.032 44.902C106.661 42.939 104.858 42.094 104.277 42.675C103.696 43.256 104.043 45.675 105.191 49.055C106.358 52.489 107.688 54.626 108.793 54.842C110.214 55.119 110.406 54.741 109.811 52.842C109.408 51.554 108.842 49.825 108.555 49C108.242 48.102 109.07 48.445 110.618 49.855C112.04 51.15 113.687 51.911 114.278 51.546C114.869 51.181 115.352 50.035 115.352 49C115.352 47.965 115.754 46.87 116.245 46.566C116.737 46.262 117.42 47.136 117.764 48.507C118.109 49.878 119.057 51 119.871 51C120.686 51 121.352 50.63 121.352 50.178C121.352 49.726 120.617 47.139 119.719 44.428C118.821 41.718 117.805 39.181 117.461 38.792C117.117 38.402 116.354 38.402 115.766 38.792ZM136.141 40.124C136.311 41.017 135.712 42.031 134.811 42.377C133.909 42.723 132.762 42.753 132.262 42.444C131.761 42.135 131.352 40.977 131.352 39.871C131.352 38.361 131.909 37.94 133.592 38.18C134.824 38.356 135.971 39.231 136.141 40.124ZM176.375 43.09C174.162 45.889 172.352 48.589 172.352 49.09C172.352 49.59 172.937 50 173.652 50C174.367 50 175.427 49.525 176.007 48.945C176.59 48.362 178.247 48.187 179.707 48.553C181.162 48.918 182.352 49.795 182.352 50.501C182.352 51.208 183.086 52.068 183.983 52.412C185.414 52.961 185.53 52.391 184.927 47.769C184.549 44.871 183.992 41.488 183.688 40.25C183.384 39.012 182.519 38 181.767 38C181.014 38 178.588 40.29 176.375 43.09ZM149.352 41.559C149.352 42.352 148.677 43 147.852 43C147.027 43 146.352 42.812 146.352 42.582C146.352 42.352 146.624 41.454 146.957 40.588C147.289 39.721 147.964 39.26 148.457 39.565C148.949 39.869 149.352 40.766 149.352 41.559ZM189.768 44.776C188.893 46.824 187.784 49.497 187.303 50.715C186.734 52.156 186.817 53.17 187.542 53.617C188.154 53.996 189.176 53.594 189.811 52.725C190.447 51.855 191.443 51.449 192.025 51.822C192.606 52.195 193.398 53.513 193.785 54.75C194.171 55.987 195.089 57 195.826 57C196.652 57 196.973 56.268 196.664 55.086C196.335 53.826 196.879 52.788 198.258 52.05C199.652 51.304 200.352 49.95 200.352 48C200.352 46.128 199.654 44.697 198.419 44.036C197.356 43.467 195.333 42.563 193.922 42.027C191.566 41.131 191.228 41.354 189.768 44.776ZM181.352 44C181.352 45.111 180.685 46 179.852 46C179.027 46 178.352 45.64 178.352 45.2C178.352 44.76 178.892 43.86 179.552 43.2C180.212 42.54 180.887 42 181.052 42C181.217 42 181.352 42.9 181.352 44ZM196.248 45.914C197.015 46.4 197.367 47.519 197.029 48.399C196.691 49.28 195.752 50 194.942 50C194.133 50 193.179 49.528 192.822 48.952C192.466 48.376 192.426 47.251 192.732 46.452C193.038 45.653 193.641 45.007 194.071 45.015C194.5 45.024 195.48 45.428 196.248 45.914Z" fill="white"/>
</svg>
