<svg width="877" height="996" viewBox="0 0 877 996" fill="none" xmlns="http://www.w3.org/2000/svg">
<g clip-path="url(#clip0_45_249)">
<path d="M247.096 180.928L231.001 189.231L236.178 199.265L252.272 190.961L247.096 180.928Z" fill="#443E79"/>
<path d="M258.827 186.013L258.014 190.744L269.141 192.656L269.953 187.925L258.827 186.013Z" fill="#443E79"/>
<path fill-rule="evenodd" clip-rule="evenodd" d="M255.53 171.13C254.905 171.719 254.136 172.133 253.3 172.33C252.6 172.45 247.76 174.21 242.54 176.24C237.32 178.27 232.48 180.39 231.79 180.95C231.1 181.51 230.53 181.58 230.52 181.1C230.51 180.62 228.4 181.38 228 182C227.6 182.62 224.5 184.5 220.17 187.72C215.726 190.288 211.484 193.19 207.48 196.4C205.388 198.277 203.715 200.573 202.57 203.14C201.658 205.504 201.633 208.119 202.5 210.5C204 214.5 204 214 208.72 214.09C212.72 213.98 214.32 213.23 219.56 209.09C222.96 206.42 227.83 202.75 230.38 200.94C232.805 199.2 235.367 197.659 238.04 196.33C239.69 195.6 242.39 194.44 244.04 193.73C248.178 191.523 252.811 190.411 257.5 190.5C261.3 190.525 265.085 190.964 268.79 191.81C269.2 191.81 269.54 191.06 269.54 190.23C269.54 189.4 269.06 188.73 268.48 188.73C267.9 188.73 267.65 188.36 267.93 187.91C268.21 187.46 267.78 185.83 266.99 184.29C266.286 183.047 265.796 181.695 265.54 180.29C265.359 179.287 264.814 178.386 264.01 177.76C263.17 177.06 262.71 176.28 263.01 176.01C263.31 175.74 262.84 174.26 262.01 172.72C261.08 170.92 259.83 169.96 258.54 170.06C257.454 170.116 256.407 170.487 255.53 171.13V171.13Z" fill="#443E79"/>
<path d="M504.5 63.5C504.68 62.96 503.5 63.08 503.06 63C502.81 63 497.3 65.59 488.86 69.74C488.141 70.4899 487.182 70.9641 486.15 71.08C479.77 74.23 472.06 78.08 463.81 82.24C444.81 91.82 428.71 100.03 425.44 101.81C425.59 101.864 425.744 101.908 425.9 101.94C426.34 101.94 426.24 102.02 425.9 101.94H425.22C425.086 102.003 424.958 102.08 424.84 102.17C424.76 102.24 424.67 102.17 424.59 102.11C424.132 102.382 423.742 102.755 423.45 103.2C423.384 103.337 423.311 103.471 423.23 103.6C423.08 103.84 423.23 103.6 423.45 103.2C423.67 102.8 423.66 102.61 423.54 102.61C423.42 102.61 409.06 109.76 391.73 118.47C374.4 127.18 355.07 136.97 348.73 140.21C341.18 144.08 337.92 146.21 339.19 146.46C339.96 147.51 341.76 147.62 341.96 147.01C342.223 146.575 342.588 146.211 343.024 145.95C343.46 145.689 343.953 145.538 344.46 145.51C345.51 145.51 347.96 145.56 347.96 145.01C347.963 144.613 348.122 144.233 348.402 143.952C348.683 143.672 349.063 143.513 349.46 143.51C350.53 143.51 351.12 142.56 351.46 142.01C351.8 141.46 353.39 141.51 354.46 141.51C355.53 141.51 356.73 140.76 356.73 140.21C356.73 139.66 356.63 139.51 357.46 139.51C358.29 139.51 359.01 138.51 359.96 138.01C360.91 137.51 365.11 135.74 368.96 134.01C372.81 132.28 376.96 129.57 379.19 128.55C381.42 127.53 386.57 125.17 390.69 123.32L405.69 116.54C409.82 114.66 424.89 107.24 439.19 100.03C453.49 92.82 469 87.17 472 85.5C475 83.83 479.2 79.9 482.5 78C485.8 76.1 489.63 75.29 491 74.5C492.37 73.71 495.23 72.8 495.5 72.5C496.789 71.591 498.124 70.7498 499.5 69.98C501.15 68.98 502.61 67.45 502.5 66.98C502.39 66.51 503.57 64.98 504.5 64.98C505.43 64.98 504.32 64 504.5 63.5Z" fill="black"/>
<path d="M453.22 59.4902C441.78 56.3202 431.37 56.6702 419.68 57.3102C414.44 57.5902 408.68 57.1802 403.86 59.6402C399.54 61.8502 396.09 65.3702 391.62 67.4302C390.62 67.8902 389.62 68.3202 388.57 68.7602L388.84 69.4002C390.01 71.9802 392.03 76.4702 393.34 79.4002C394.243 81.271 395.041 83.1906 395.73 85.1502C395.73 85.4102 395.28 85.6202 394.73 85.6202C394.18 85.6202 394 85.0002 393.5 84.0002L392.5 82.5002C392 82.0002 389.5 78.7302 386.23 74.0802C385.73 73.3702 385.23 72.6802 384.72 72.0202C379.106 77.3918 373.029 82.2574 366.56 86.5602C360.46 90.7702 353.72 94.9802 349.1 100.9C348.74 101.35 348.41 101.82 348.1 102.29C349.16 103.15 350.41 104.07 351.74 104.95C355.59 107.51 358.74 110.05 358.74 110.6C358.74 111.15 358.58 111.6 358.38 111.6C358.18 111.6 354.74 110.25 350.74 108.6C348.95 107.86 347.15 107.19 345.62 106.66C343.62 110.83 342.13 115.3 339.9 119.34C337.47 123.76 330.65 131.88 333.09 137.34L333.14 137.46C334.33 138.16 335.76 138.83 336.47 138.61C337.6 138.27 344.96 133.8 352.8 130.02C360.64 126.24 366.67 123.02 367.01 123.02C367.35 123.02 385.01 114.94 406.01 104.52C427.01 94.1001 448.68 82.9201 455.01 79.5201C461.34 76.1201 469.01 71.9102 471.51 70.5202C473.08 69.6402 475.25 68.3102 477.41 67.0502C469.81 63.5202 461 61.6302 453.22 59.4902Z" fill="black"/>
<path d="M227.55 182.94C228.48 182.65 230.36 181.94 231.73 181.37C233.1 180.8 235.36 179.88 236.73 179.37C238.1 178.86 240.13 178.02 241.23 177.6C242.33 177.18 245.93 175.81 249.23 174.6C251.651 173.782 253.994 172.747 256.23 171.51C256.792 171.025 257.491 170.728 258.23 170.66C258.81 170.66 259.89 172.13 260.63 173.91C261.37 175.69 262.87 179.15 263.96 181.58C264.993 183.804 265.717 186.159 266.11 188.58C266.26 190.97 266.03 191.1 261.88 190.82L257.48 190.53L260.38 193.25C262.196 194.892 264.241 196.263 266.45 197.32C269.15 198.47 270.25 198.45 273.85 197.17C275.239 196.588 276.692 196.175 278.18 195.94C278.23 196.09 278.96 197.55 279.8 199.2C280.64 200.85 282.28 202.34 283.44 202.51C284.6 202.68 288.27 201.04 291.69 198.83C297.33 195.19 298.28 194.9 303.06 195.34C307.58 195.77 308.67 195.5 311.27 193.34C313.5 191.46 313.84 190.81 312.58 190.78C312.144 190.762 311.71 190.842 311.31 191.015C310.91 191.188 310.555 191.45 310.27 191.78C309.87 192.42 309.22 192.33 308.46 191.53C307.41 190.216 306.508 188.791 305.77 187.28C304.95 185.63 302.43 180.91 300.17 176.78C297.91 172.65 294.17 165.67 291.83 161.27C289.49 156.87 287.52 153.27 287.44 153.27L279.77 153.49C274.914 153.682 270.073 154.147 265.27 154.88C261.05 155.606 256.876 156.578 252.77 157.79C249.77 158.79 245.92 160.14 244.27 160.88C242.62 161.62 239.27 163.44 236.77 164.93C234.374 166.347 232.283 168.227 230.62 170.46C229.314 173.021 228.253 175.7 227.45 178.46C226 183.1 226 183.44 227.55 182.94Z" fill="black"/>
<path d="M875.15 63.2001C874.583 62.9603 873.998 62.7663 873.4 62.6201C873.31 62.6201 870.76 63.6201 867.73 64.9101C864.7 66.2001 856 70.4301 848.44 74.4001C840.88 78.3701 826.68 86.0001 816.94 91.2601C807.2 96.5201 797.88 101.66 796.23 102.58C794.58 103.5 790.08 105.98 786.23 108.09C782.38 110.2 774.96 114.39 769.73 117.4C764.5 120.41 754.61 126.27 747.73 130.4C740.85 134.53 731.86 140.27 727.73 143.07C724.196 145.511 720.523 147.745 716.73 149.76C714.81 150.64 706.93 153.92 699.23 157.04C691.53 160.16 682.9 163.84 680.05 165.22C677.05 166.67 670.64 171.71 664.72 177.29C657.305 184.125 649.342 190.339 640.91 195.87L610.18 216.06C600.8 222.22 592.25 227.72 591.18 228.28C590.11 228.84 581.58 229.55 572.23 229.87C562.39 230.21 552.91 231.07 549.73 231.92C546.73 232.72 541.58 234.11 538.33 234.99C534.291 236.204 530.384 237.822 526.67 239.82C522.718 242.169 519.001 244.891 515.57 247.95L510.23 252.85L509.9 266.2C509.72 273.54 509.21 279.54 508.77 279.54C508.33 279.54 507.77 278.54 507.47 277.29C507.17 276.04 506.17 272.79 505.2 270.04C504.23 267.29 502.34 262.32 501.01 259.04C498.71 253.28 498.38 252.93 493.92 251.72C491.34 251.02 488.7 250.42 487 250C485 249.5 484.27 249.41 483 249C481.379 248.632 479.798 248.106 478.28 247.43C476.88 246.79 475.73 245.43 475.73 244.43C475.73 242.94 476.52 242.59 479.91 242.59C482.535 242.54 485.142 242.136 487.66 241.39C490.087 240.488 492.392 239.285 494.52 237.81C497.76 235.47 498.06 235.44 510.82 236.27C518.03 236.74 524.2 236.73 524.67 236.27C525.14 235.81 524.42 232.91 523.03 229.76C521.64 226.61 519.68 222.2 518.63 219.87C517.895 218.34 517.26 216.763 516.73 215.15C516.73 214.88 515.38 211.72 513.73 208.15C512.509 205.703 511.505 203.153 510.73 200.53C510.73 199.95 508.25 194.53 505.22 188.46C502.19 182.39 498.37 175.82 496.72 173.83C494.72 171.43 493.72 169.08 493.72 166.92C493.72 165.13 494.15 163.65 494.67 163.65C495.19 163.65 497.28 166.47 499.31 169.9C501.34 173.33 503.84 177.64 504.88 179.47C505.92 181.3 507.49 183.9 508.39 185.27C509.64 187.17 510.73 187.69 513.04 187.46C514.71 187.29 516.23 186.66 516.42 186.07C516.61 185.48 513.42 180.36 509.26 174.7C504.97 168.85 501.26 162.64 500.66 160.28C500.06 157.92 497.54 152.55 495.02 148.15C492.5 143.75 488.89 137.78 487.02 134.89C484.14 130.52 483.65 129.04 484.19 126.21C484.73 123.38 484.35 122.21 481.84 119.39C479 116.16 478.94 115.9 480.56 114.13C481.693 112.89 481.76 112.613 480.76 113.3C476.857 115.116 472.85 116.699 468.76 118.04C462.99 120.04 457.48 122.18 456.52 122.7C455.423 123.278 454.217 123.619 452.98 123.7C451.996 123.695 451.032 123.98 450.21 124.52C449.69 124.97 445.89 126.4 441.76 127.7C437.63 129 433.83 130.43 433.31 130.88C432.492 131.421 431.531 131.707 430.55 131.7C429.309 131.78 428.1 132.121 427 132.7C423.982 134.045 420.898 135.236 417.76 136.27C413.64 137.7 404.41 141.12 397.26 143.88C390.11 146.64 383.36 149.27 382.26 149.73C381.16 150.19 379.47 150.81 378.51 151.12C377.01 151.6 376.76 153 376.76 160.88C376.76 165.94 376.48 169.8 376.14 169.46C375.8 169.12 375.52 165.21 375.52 160.79C375.52 156.37 375.19 152.79 374.78 152.79C372.687 153.359 370.635 154.07 368.64 154.92C365.64 156.08 361.91 157.62 360.26 158.34C358.61 159.06 354.95 160.54 352.14 161.65C349.33 162.76 344.82 164.65 342.14 165.83C339.46 167.01 336.36 168.34 335.26 168.77L335.02 168.87C335.02 169.02 335.02 169.16 335.02 169.32C334.45 174.49 342.26 179.79 344.56 184.12C348.23 191.05 350.85 199.38 353.21 206.83C355.69 214.67 359.82 222.53 361.07 230.68C362.28 238.6 358.98 244.76 357.4 252.25C357.231 253.333 356.652 254.309 355.782 254.976C354.912 255.643 353.819 255.949 352.73 255.83L351.73 257.83H335.51C323.44 257.83 318.14 258.24 314.82 259.4C312.36 260.25 307.92 262.06 304.95 263.4C300.56 265.4 298.95 265.69 296.41 264.92C294.69 264.39 290.21 263.42 286.41 262.75C282.539 262.071 278.601 261.856 274.68 262.11C271.99 262.43 266.2 264.27 261.81 266.2C257.771 267.877 253.828 269.777 250 271.89C247.91 273.21 245.64 274.09 244.95 273.89C244.6 273.76 244.295 273.532 244.073 273.231C243.851 272.931 243.721 272.573 243.7 272.2C243.431 270.709 242.924 269.271 242.2 267.94C241.202 265.419 240.66 262.741 240.6 260.03C240.54 257.34 240.77 247.03 241.11 237.13C241.57 223.89 242.29 216.88 243.83 210.63C244.852 206.357 246.226 202.176 247.94 198.13C248.958 196.055 250.173 194.082 251.57 192.24C253.12 190.44 253.09 190.4 251.02 191.49C249.688 192.155 248.236 192.543 246.75 192.63C245.433 192.67 244.138 192.973 242.94 193.52C241.94 194.01 239.18 195.38 236.7 196.57C233.547 198.176 230.537 200.046 227.7 202.16C225.23 204.05 220.64 207.41 217.51 209.62C213.26 212.62 210.84 213.62 207.98 213.62H204.15L199.46 223.37C197.185 228.013 195.149 232.769 193.36 237.62C192.58 240.1 191.48 244.15 190.89 246.62C190.3 249.09 189.38 253.15 188.82 255.62C188.26 258.09 187.28 263.27 186.64 267.12C185.698 272.052 184.312 276.888 182.5 281.57C180.869 285.634 179.695 289.867 179 294.19C178.701 297.082 178.741 299.998 179.12 302.88C179.48 304.88 181.52 308.35 183.77 310.88C186.68 314.2 190.39 316.69 197.49 320.13C202.84 322.71 211.05 326.53 215.72 328.6C220.39 330.67 228.27 334.25 233.22 336.54C238.17 338.83 243.57 341.31 245.22 342.06C246.87 342.81 250.7 344.44 253.72 345.7C258.44 347.7 261.01 347.99 271.72 348.01C278.6 348.01 290.25 347.48 297.62 346.81C307.25 345.93 311.39 345.89 312.33 346.66C313.04 347.26 315.33 350.74 317.33 354.41C319.33 358.08 323.84 365.41 327.33 370.66C330.82 375.91 333.95 381.45 334.33 382.92C334.598 384.219 335.245 385.409 336.19 386.34C337.573 387.581 338.781 389.004 339.78 390.57C341.1 392.5 347.34 400.57 353.65 408.57C359.96 416.57 367.65 425.99 370.65 429.57C373.65 433.15 376.92 436.83 377.76 437.78C378.83 438.97 379.66 443.72 380.5 453.3C381.3 462.39 382.56 469.78 384.22 474.98C385.298 478.076 386.127 481.253 386.7 484.48C386.7 485.37 384.86 488.07 382.65 490.48C380.302 493.078 378.249 495.929 376.53 498.98C375.12 501.908 373.969 504.952 373.09 508.08C372.261 511.606 371.809 515.209 371.74 518.83C371.74 523.42 370.86 526.53 367.4 534.33C365.02 539.69 362.13 546.56 360.99 549.58C359.85 552.6 358.38 557.21 357.71 559.8C356.71 563.54 354.71 566.47 347.86 573.8C343.11 578.92 337.21 585.52 334.73 588.46C332.25 591.4 327.43 597.54 324.01 602.1C320.59 606.66 315.74 613.85 313.26 618.1C310.78 622.35 308.73 625.94 308.73 626.18C308.12 627.938 307.412 629.661 306.61 631.34L303.04 639.34C302.24 641.16 298.72 651.34 295.22 661.98C291.72 672.62 287.4 686.65 285.65 693.18C283.9 699.71 282.11 706.62 281.65 708.54C281.19 710.46 280.15 714.97 279.27 718.54C278.39 722.11 277.21 726.42 276.68 728.11C276.18 729.568 275.844 731.078 275.68 732.61C275.68 733.4 274.3 735.61 272.62 737.54C270.94 739.47 266.3 745.09 262.31 750.04C258.32 754.99 252.31 763.04 248.97 768.04C245.488 773.197 242.287 778.538 239.38 784.04C237.275 788.304 235.432 792.692 233.86 797.18C232.76 800.54 230.86 807.49 229.71 812.64C228.56 817.79 227.17 823.79 226.71 825.99C226.25 828.19 225.33 832.69 224.71 835.99C224.09 839.29 223.1 843.99 222.56 846.49C222.02 848.99 221.12 853.02 220.56 855.49C220 857.96 219.15 861.57 218.64 863.49C218.13 865.41 216.98 869.49 216.09 872.49C215.2 875.49 212.89 881.59 210.97 885.99C209.05 890.39 206.78 895.34 205.97 896.99C205.16 898.64 200.66 905.74 196.03 912.75C190.549 920.901 184.627 928.746 178.29 936.25C173.358 942.012 168.049 947.44 162.4 952.5C158.78 955.5 155.04 959.5 154.1 961.5C153.16 963.5 152.1 968.5 151.73 972.67C151.36 976.84 150.73 980.79 150.33 981.43C149.916 982.444 149.884 983.574 150.24 984.61C150.999 986.124 152.231 987.349 153.75 988.1C155.962 989.055 158.341 989.561 160.75 989.59C163.709 989.505 166.655 989.15 169.55 988.53C172.13 987.95 176.27 986.99 178.74 986.4C181.21 985.81 185.29 984.69 187.79 983.91C190.274 983.145 192.663 982.098 194.91 980.79C196.32 979.86 201.02 974.97 205.36 969.92C209.7 964.87 221.67 953.29 231.97 944.17C244.97 932.65 251.36 926.3 252.86 923.35C254.77 919.61 254.86 918.61 253.86 914.84C253.23 912.49 252.72 906.46 252.72 901.45C252.72 896.44 253.22 890.45 253.83 888.21C254.44 885.97 255.3 883.21 255.73 882.09C256.16 880.97 257.51 877.86 258.73 875.09C260.999 870.532 263.551 866.12 266.37 861.88C270.2 856.08 275.42 850.29 284.01 842.34C290.72 836.13 298.01 829.25 300.22 827.04C303.22 824.04 304.93 820.97 306.95 815.04C308.874 809.017 310.46 802.891 311.7 796.69C312.605 792.397 313.273 788.057 313.7 783.69C313.7 781.78 315.98 778.58 321.97 772.05C326.52 767.05 332.08 760.8 334.34 758.05C336.6 755.3 341.18 748.87 344.53 743.75C348.146 738.138 351.255 732.214 353.82 726.05L357.01 717.65L365.11 712.25C369.56 709.25 378.38 702.84 384.7 697.95C393.063 691.235 401.074 684.092 408.7 676.55C415.893 669.372 422.67 661.79 429 653.84C433.25 648.2 436.72 643.13 436.72 642.59C436.697 642.351 436.769 642.112 436.921 641.925C437.072 641.738 437.291 641.618 437.53 641.59C437.97 641.59 439.6 639.23 441.15 636.34C442.7 633.45 445.09 629.07 446.45 626.59C447.81 624.11 450.57 619.17 452.58 615.59L456.22 609.09L457.4 622.75C457.954 629.634 458.913 636.479 460.27 643.25C460.841 645.932 461.654 648.556 462.7 651.09C463.1 651.64 467.15 659.29 471.7 668.09C476.25 676.89 480.3 684.54 480.7 685.09C481.1 685.64 484.5 691.94 488.26 699.09C492.02 706.24 496.76 715.47 498.79 719.59C501.514 725.456 503.921 731.465 506 737.59C507.94 743.37 510.08 750.59 510.75 753.59C511.42 756.59 512.36 760.4 512.85 761.99C513.362 763.798 513.655 765.662 513.72 767.54C513.72 769.45 511.56 772.54 505.97 778.66C501.71 783.32 496.16 789.6 493.65 792.66C491.257 795.516 489.049 798.523 487.04 801.66C485.91 803.59 483.18 808.11 480.96 811.72C478.717 815.381 476.793 819.229 475.21 823.22C474.27 825.94 472.89 830.64 472.15 833.66C471.24 837.36 470.78 845.95 470.76 859.84C470.76 871.21 470.25 884.04 469.67 888.34C468.981 893.184 467.935 897.971 466.54 902.66C464.51 908.411 462.191 914.054 459.59 919.57C456.91 925.29 450.41 937.75 445.15 947.26C439.89 956.77 435.15 966.04 434.68 967.86C434.167 969.904 434.123 972.037 434.55 974.1C435.142 975.947 436.265 977.578 437.78 978.79C439.12 979.79 444.95 981.48 450.72 982.61C456.49 983.74 467.52 985.34 475.22 986.14C484.94 987.14 492.13 988.54 498.72 990.68C505.682 992.943 512.91 994.288 520.22 994.68C526.82 995.19 536.61 995.62 541.97 995.63C550.52 995.63 551.97 995.41 553.79 993.63C555.79 991.63 555.79 991.47 554.12 988.88C552.714 986.907 551.098 985.093 549.3 983.47C547.039 981.653 544.472 980.254 541.72 979.34C539.25 978.58 535.2 977.34 532.72 976.67C528.276 975.169 523.933 973.382 519.72 971.32C513.883 968.633 508.608 964.867 504.17 960.22C498.68 954.78 496.79 952.15 495.77 948.52C494.7 944.71 494.69 942.19 495.7 935.08C496.229 930.898 497.143 926.774 498.43 922.76C499.24 920.81 509.99 904.21 522.31 885.9C534.63 867.59 546 850.03 547.58 846.9C549.16 843.77 553.24 834.68 556.67 826.7C560.1 818.72 563.53 811.48 564.3 810.6C565.07 809.72 568.19 802.97 571.21 795.6C574.23 788.23 577.11 781.3 577.6 780.2C578.09 779.1 578.94 776.85 579.49 775.2C580.04 773.55 581.03 769.95 581.68 767.2C582.33 764.45 582.85 756.13 582.85 748.7C582.903 741.921 582.506 735.146 581.66 728.42C581 724.69 580.77 720.64 581.13 719.42C581.49 718.2 582.71 713.83 583.82 709.7C584.93 705.57 586.24 700.4 586.74 698.2C587.24 696 588.32 691.05 589.16 687.2C590.11 682.84 590.67 675.12 590.66 666.7C590.684 659.506 590.18 652.32 589.15 645.2C588.33 640.8 587.24 634.95 586.72 632.2C586.2 629.45 585.06 624.5 584.18 621.2C583.3 617.9 580.13 610.6 577.13 604.98C574.13 599.36 570 592 567.88 588.7C565.725 585.346 564.024 581.721 562.82 577.92C562.15 575.27 561.2 571.52 560.7 569.59C560.2 567.66 558.37 560.02 556.64 552.59C554.33 542.73 552.43 537.21 549.64 532.09C547.5 528.24 544.39 522.84 542.73 520.09C541.07 517.34 538.6 512.84 537.25 510.09C535.912 507.387 535.078 504.462 534.79 501.46C534.909 498.886 535.46 496.351 536.42 493.96C537.423 491.557 538.281 489.096 538.99 486.59C539.5 484.67 540.33 481.29 540.83 479.09C541.33 476.89 542.23 471.72 542.83 467.59C543.43 463.46 544.26 447.27 544.71 431.59L545.53 403.09L549.16 395.98C551.16 392.06 552.8 388.36 552.8 387.76C553.385 385.554 554.193 383.413 555.21 381.37C556.54 378.47 559.06 372.49 560.8 368.09C562.54 363.69 565.46 355.8 567.27 350.55C569.08 345.3 572.13 334.72 574.05 327.05C575.97 319.38 578.12 310.54 578.82 307.43C579.273 305.093 579.943 302.803 580.82 300.59C581.36 299.73 582.89 299.83 586.82 301.01C589.943 301.912 593.162 302.443 596.41 302.59C599.808 302.441 603.182 301.945 606.48 301.11C610.857 299.808 615.102 298.097 619.16 296C623.214 293.879 627.099 291.449 630.78 288.73C633.939 286.065 636.716 282.975 639.03 279.55C641.275 275.957 643.279 272.219 645.03 268.36C646.82 264.28 649.61 260.69 654.86 255.7C658.86 251.86 667.14 244.65 673.19 239.7C679.632 234.247 686.678 229.55 694.19 225.7C699.69 222.96 708.92 217.7 714.69 214.03L731.42 203.39C734.868 201.204 738.056 198.63 740.92 195.72C742.72 193.72 746.52 189.11 749.37 185.57C752.22 182.03 762 170.07 771 159C780 147.93 788.63 138.17 790.07 137.23C791.51 136.29 796.4 135.02 800.94 134.42C805.48 133.82 810.58 132.49 812.38 131.42C814.18 130.35 817.95 126.69 820.87 123.28C823.79 119.87 828.42 114.6 831.16 111.57C833.9 108.54 840.43 101.84 845.66 96.6801C850.89 91.5201 858.81 84.2301 863.27 80.5101C867.054 77.4206 870.647 74.1045 874.03 70.5801C875.49 68.8401 876.69 66.5801 876.69 65.5801C876.673 65.081 876.521 64.5957 876.25 64.1764C875.979 63.7571 875.598 63.4196 875.15 63.2001ZM378.42 173.84C378.67 174.993 378.67 176.187 378.42 177.34C378.17 178.34 377.96 177.52 377.96 175.59C377.96 173.66 378.17 172.88 378.42 173.84ZM401.25 235.35C400.61 238.179 399.696 240.939 398.52 243.59C396.845 246.854 394.743 249.881 392.27 252.59C389.43 255.539 387.368 259.147 386.27 263.09C385.544 265.71 384.656 268.281 383.61 270.79C383.052 271.944 382.739 273.2 382.69 274.48C382.714 274.955 382.638 275.429 382.466 275.872C382.293 276.315 382.029 276.717 381.69 277.05C381.14 277.39 380.69 278.97 380.69 280.55C380.69 282.13 380.24 283.71 379.69 284.05C379.14 284.39 378.69 285.74 378.69 287.05C378.69 288.36 378.24 289.71 377.69 290.05C377.14 290.39 376.69 291.99 376.69 293.61C376.69 295.61 376.18 296.55 375.19 296.55C374.2 296.55 373.69 295.41 373.69 292.25C373.69 289.89 373.29 287.53 372.79 287C372.29 286.47 371.63 284.14 371.29 281.8L370.09 273.3C369.76 270.97 369.09 268.63 368.59 268.1C367.941 266.982 367.629 265.701 367.69 264.41C367.69 262.9 367.24 261.41 366.69 261.05C366.14 260.69 365.69 259.34 365.69 257.99C365.69 256.47 366.27 255.55 367.22 255.55C368.17 255.55 369.16 254.44 369.68 253.09C370.642 250.911 371.793 248.819 373.12 246.84C375.144 243.4 376.864 239.79 378.26 236.05C378.62 235.05 379.01 233.99 379.39 232.81C378.697 233.788 377.88 234.672 376.96 235.44C372.01 239.44 364.89 232.44 369.88 228.36C373.23 225.63 374.42 219.01 374.76 214.92C375.121 209.135 374.468 203.331 372.83 197.77C371.17 192.06 379.2 189.39 381.89 193.77C382.279 194.139 382.615 194.56 382.89 195.02C383.68 196.12 386.42 200.44 389 204.61C391.58 208.78 393.67 213.09 393.67 214.18C393.67 215.27 392.32 218.95 390.67 222.36C389.02 225.77 387.67 229.13 387.67 229.84C387.539 230.823 387.101 231.74 386.42 232.46C385.42 233.56 385.61 233.67 387.67 233.07C389.05 232.68 392.04 231.88 394.32 231.29C396.6 230.7 399.24 230.53 400.18 230.89C401.62 231.49 401.82 232.33 401.25 235.35Z" fill="black"/>
<path d="M382 172.66H376.7V184.9H382V172.66Z" fill="black"/>
<path d="M331.45 136.35C332.37 137.04 335.33 138.94 336.45 138.59C337.57 138.24 344.94 133.79 352.78 130C360.62 126.21 366.65 123 366.99 123C367.33 123 384.99 114.92 405.99 104.5C426.99 94.0801 448.67 82.9001 454.99 79.5001C461.31 76.1001 468.99 71.8901 471.49 70.5001C473.99 69.1101 478 66.6001 481 65.0001C483.453 63.6958 485.795 62.1907 488 60.5001C488.51 60.0001 487.81 59.3401 487.47 58.9901C487.13 58.6401 482.26 56.8601 476.66 54.9901C471.06 53.1201 464.07 51.1101 461.11 50.4501C456.3 49.3701 455.53 49.4501 453.73 51.0601C452.958 51.7161 452.364 52.555 452 53.5001C451.37 54.7601 451.24 55.0901 451.24 55.0901L450 57.0001C449 58.0001 448.9 57.2901 448.83 55.0901C448.842 53.2397 448.503 51.4038 447.83 49.6801C447.28 48.8101 444.88 48.1801 441.59 48.0401C432.229 47.8446 422.879 48.7984 413.75 50.8801C410.18 51.7601 404.49 53.3701 401.11 54.4601C397.608 55.5967 394.184 56.9596 390.86 58.5401C388.08 59.9501 386.75 61.2901 386.75 62.6701C387.118 65.0051 387.829 67.2729 388.86 69.4001C390.03 71.9801 392.05 76.4701 393.36 79.4001C394.262 81.2709 395.06 83.1906 395.75 85.1501C395.75 85.4101 395.3 85.6201 394.75 85.6201C394.2 85.6201 394 85.0001 393.5 84.0001L392.5 82.5001C392 82.0001 389.5 78.7301 386.23 74.0801C382.96 69.4301 379.59 65.6201 378.8 65.6101C378.01 65.6001 374.19 68.0001 370.3 71.0001C366.626 73.7949 363.117 76.8 359.79 80.0001L356.35 83.5601L358.63 86.6501C359.88 88.3401 360.71 89.9301 360.47 90.1601C360.23 90.3901 358.42 89.9201 356.47 89.1001L352.88 87.6001L348.82 92.3401C346.59 94.9401 344.76 97.7901 344.76 98.6801C344.76 99.5701 347.9 102.37 351.76 104.93C355.62 107.49 358.76 110.03 358.76 110.58C358.76 111.13 358.6 111.58 358.4 111.58C358.2 111.58 354.76 110.23 350.76 108.58C346.76 106.93 342.7 105.58 341.76 105.58C340.82 105.58 339.35 106.98 338.49 108.83C337.63 110.68 336.22 113.83 335.3 116.08C333.891 119.843 332.696 123.683 331.72 127.58C329.89 134.6 329.88 135.18 331.45 136.35Z" fill="#F67206"/>
<path d="M382.25 196.3C381.7 193.87 381.66 193.48 382.49 194.59C381.59 191.82 380.84 189 380.18 186.14C378.99 180.96 377.49 175.88 376.65 170.64C376.65 170.64 376.65 170.57 376.65 170.53C376.42 170.089 376.281 169.606 376.24 169.11C375.91 168.63 375.65 164.76 375.67 160.36C375.69 155.96 375.36 152.21 374.95 152.21C372.843 152.776 370.778 153.487 368.77 154.34C365.77 155.51 361.98 157.06 360.32 157.77C358.66 158.48 354.97 159.99 352.13 161.1C349.29 162.21 344.76 164.1 342.06 165.29C339.36 166.48 336.24 167.82 335.13 168.29C334.02 168.76 331.98 169.55 330.59 170.13C329.2 170.71 328.59 171.22 329.25 171.26C329.91 171.3 331.2 173.73 332.15 176.66C333.211 179.83 334.581 182.888 336.24 185.79C337.53 187.88 339.38 189.6 340.34 189.62C341.444 189.671 342.52 189.983 343.48 190.53C344.65 191.28 344.62 191.78 343.29 193.67C342.787 194.275 342.452 195.003 342.319 195.778C342.185 196.554 342.258 197.351 342.53 198.09C342.98 199.28 344.92 203.09 346.85 206.5C349.013 210.442 350.946 214.505 352.64 218.67C354.64 223.78 354.93 226.48 354.94 238.27C354.94 249.54 354.25 252.01 353.19 254.89L352.38 256.47C356.87 256.62 361.38 256.89 365.83 257.33C365.933 257.1 366.1 256.904 366.311 256.766C366.522 256.628 366.768 256.553 367.02 256.55C367.87 256.55 369.02 255.44 369.51 254.07C370.486 251.867 371.65 249.753 372.99 247.75C375.05 244.275 376.797 240.624 378.21 236.84C379.907 232.216 381.3 227.486 382.38 222.68C383.353 217.679 383.705 212.577 383.43 207.49C383.255 203.74 382.861 200.004 382.25 196.3Z" fill="#F67206"/>
<path fill-rule="evenodd" clip-rule="evenodd" d="M495.5 252.5C495.12 253.11 495.7 253.87 496 254.5C496.3 255.13 496.5 255.5 497 256.5C497.5 257.5 499.72 263 501.73 268.5C503.74 274 506.1 280.64 506.98 283.25C507.86 285.86 508.88 288 509.27 288C509.66 288 510.27 281.81 510.63 274.25C510.99 266.69 511.58 258.36 511.91 255.75L512.52 251H504.45C499.61 251 495.91 251.83 495.5 252.5ZM366.5 254C365.56 254.71 364.5 257.14 364 258.5C363.27 260.41 362.5 261 363.5 263C364 264.5 365 266.5 365.5 268C366.5 271.5 366.69 271.74 367.21 273.43C367.73 275.12 368.67 279.2 369.32 282.5C369.97 285.8 370.86 289.85 371.32 291.5C371.78 293.15 372.4 296.17 372.74 298.2C373.17 300.78 373.74 301.75 374.74 301.38C375.49 301.1 377.34 296.95 378.86 292.18C380.38 287.41 382.92 279.23 384.53 274C386.14 268.77 388.32 262.3 389.38 259.62C390.172 257.757 390.814 255.835 391.3 253.87C391.3 253.39 386.01 253.01 379.55 253.03C371.46 253.05 367.67 253.11 366.5 254Z" fill="#F67206"/>
<path d="M495.787 252.23L481.093 257.9L496.155 296.935L510.849 291.265L495.787 252.23Z" fill="black"/>
<path d="M512.29 251.004L509.304 292.757L524.705 293.859L527.69 252.105L512.29 251.004Z" fill="black"/>
<path d="M512.336 251.014L512.203 272.834L523.783 272.905L523.916 251.085L512.336 251.014Z" fill="black"/>
<path d="M354.22 254.21C355.779 250.545 357.628 247.011 359.75 243.64C366.75 232.34 375.11 224.8 378.33 226.81C381.55 228.82 378.46 239.61 371.42 250.91C369.952 253.277 368.364 255.567 366.66 257.77" fill="#F67206"/>
<path d="M366.66 257.77C360.97 265.07 355.35 269.31 352.84 267.77C350.66 266.41 351.36 261.05 354.22 254.23" fill="black"/>
<path d="M378.688 235.563C381.566 226.754 380.741 218.581 376.846 217.309C372.95 216.036 367.46 222.146 364.582 230.955C361.704 239.764 362.529 247.937 366.425 249.21C370.32 250.482 375.811 244.372 378.688 235.563Z" fill="#F67206"/>
<path d="M504.929 63.5102L339.382 137.355L344.486 148.798L510.033 74.9534L504.929 63.5102Z" fill="#443E79"/>
<path fill-rule="evenodd" clip-rule="evenodd" d="M565.5 5.53C562.118 9.54872 558.442 13.3092 554.5 16.78C550.89 19.93 547.03 23.32 545.93 24.31C544.83 25.3 538.63 29.81 532.15 34.31C525.67 38.81 518.47 43.58 516.15 44.91C513.83 46.24 511.03 47.82 509.93 48.43C508.83 49.04 505.99 50.8 503.63 52.32C501.389 53.7706 499.05 55.0637 496.63 56.19C495.14 56.79 492.46 57.91 490.68 58.69C488.9 59.47 488 60.5 487 61L486 61.5C485 62 480.79 64.77 476.94 67C473.09 69.23 467.01 72.58 463.44 74.44C459.87 76.3 454.44 79.17 451.44 80.83C448.44 82.49 431.54 91.03 413.94 99.83C396.34 108.63 378.11 117.59 373.44 119.83L352.94 129.51C346.34 132.61 340.15 135.59 339.2 136.11C338.513 136.526 337.773 136.845 337 137.06C335.637 137.477 334.301 137.978 333 138.56C332 139.06 329.22 140.86 326.22 142.37C323.644 143.73 320.932 144.816 318.13 145.61C316.353 145.938 314.605 146.403 312.9 147C311.886 147.429 310.835 147.763 309.76 148C309.45 148 307.67 146.32 305.76 144.26L302.34 140.53L294.8 144.46C288.25 147.87 287.32 148.7 287.7 150.7C287.94 151.96 287.7 153 287.2 153C286.7 153 287.13 154.46 288.2 156.25C289.27 158.04 292.53 164 295.45 169.5L303.92 185.44C305.66 188.71 307.74 191.79 308.54 192.3C309.59 192.96 311.81 192.06 316.37 189.11C319.87 186.85 323.54 185 324.52 185C324.967 185.017 325.412 184.936 325.825 184.764C326.238 184.591 326.608 184.33 326.91 184C327.23 183.47 326.57 181.22 325.44 179L323.38 175L325.97 174C327.4 173.45 325.97 174 329.97 172.51L331.09 171.92L340.04 167.37C344.37 165.46 351.28 162.52 355.41 160.83C359.54 159.14 366.28 156.53 370.41 155.02C374.54 153.51 384.41 149.71 392.41 146.58C400.41 143.45 410.51 139.58 414.91 137.87C419.31 136.16 425.38 134.01 428.41 132.99C431.44 131.97 441.11 128.58 449.91 125.48C458.71 122.38 468.83 118.93 472.41 117.82C475.86 116.781 479.235 115.504 482.51 114C484.51 113 490.1 110.77 495.01 109C499.92 107.23 506.54 105 509.73 104C512.92 103 519.25 100.34 523.81 98.2C529.3 95.5432 534.614 92.537 539.72 89.2C544.459 85.9319 548.9 82.2509 552.99 78.2C556.456 74.5231 559.664 70.6103 562.59 66.49C564.552 63.6563 566.319 60.6929 567.88 57.62C568.62 55.95 569.98 52.57 570.88 50.1C572.319 45.3571 573.386 40.509 574.07 35.6C575.31 27.34 575.37 23.92 574.4 16.09C573.923 11.8017 573.198 7.54465 572.23 3.34C571.73 1.46 571 0 570.6 0C570.2 0 567.93 2.49 565.5 5.53ZM502.74 65.7C500.168 67.0712 497.668 68.5732 495.25 70.2C491.79 72.44 484.45 76.51 478.95 79.2C473.45 81.89 470.23 83.82 469 84.45C467.77 85.08 469.84 83.67 467 85.45L463 88L450.68 93.87C444.5 97.1 446.5 96 440 99L433 103C429.44 104.72 433 103 429.44 104.72C425.88 106.44 418.09 110.18 412.17 112.94C406.25 115.7 401.41 118 401 118L398 119.5L391.44 123C388.44 124.25 381.21 127.59 375.44 130.41C369.67 133.23 362.91 136.41 360.44 137.41C357.97 138.41 350.99 141.76 344.94 144.77C338.89 147.78 333.39 150.7 332.72 151.24C332.376 151.508 331.978 151.698 331.553 151.796C331.128 151.895 330.687 151.9 330.26 151.81C329.58 151.58 337.55 147.21 347.98 142.11L370.79 130.92C372.91 129.92 375.79 128.4 377.29 127.64C378.79 126.88 388.29 122.15 398.44 117.13C408.59 112.11 398.44 117.13 417 108.03L424.5 104.03C428.253 101.718 432.166 99.6758 436.21 97.92C439.91 96.25 445.86 93.46 449.44 91.72C456.27 87.78 449.61 91.72 456.27 87.78L457.82 87.03L462 85C462.686 84.7062 463.353 84.3723 464 84L466 83C474 79.5 466.49 82.61 474 79.5L480.5 76L491.82 69.61C497.82 66.49 502.98 64.23 503.32 64.61C503.66 64.99 503.4 65.47 502.74 65.7Z" fill="#443E79"/>
<path d="M330.34 150.41L501.84 63.68C502.193 63.5052 502.601 63.4765 502.975 63.6C503.35 63.7235 503.66 63.9893 503.84 64.34V64.34C504.017 64.6928 504.048 65.1016 503.924 65.4766C503.8 65.8516 503.533 66.1621 503.18 66.34L331.69 153.09C331.336 153.264 330.927 153.291 330.552 153.166C330.178 153.04 329.868 152.772 329.69 152.42C329.6 152.245 329.546 152.055 329.53 151.859C329.514 151.664 329.537 151.467 329.597 151.28C329.658 151.093 329.754 150.92 329.882 150.771C330.009 150.622 330.165 150.499 330.34 150.41V150.41Z" fill="#F67206"/>
<path d="M303.279 139.757L286.294 148.426C285.31 148.928 284.919 150.133 285.421 151.117L306.784 192.97C307.286 193.954 308.49 194.345 309.474 193.842L326.46 185.173C327.444 184.671 327.834 183.466 327.332 182.482L305.97 140.629C305.467 139.645 304.263 139.255 303.279 139.757Z" fill="#443E79"/>
<path fill-rule="evenodd" clip-rule="evenodd" d="M333 383.67C332.63 384.03 332.33 387.86 332.33 392.17C332.06 399.65 331.393 407.111 330.33 414.52C329.21 422.52 326.95 435.34 325.33 443.05C323.71 450.76 320.58 463.5 318.41 471.36C316.24 479.22 312.41 491.24 309.85 498.08C307.29 504.92 302.39 516.35 299 523.5C295.61 530.65 290.14 540.74 287 545.91C283.86 551.08 276.84 561.24 271.45 568.46C266.06 575.68 256.77 587.46 250.84 594.55C244.91 601.64 234.84 613.35 228.53 620.55C222.22 627.75 205.29 645.26 190.96 659.55C176.63 673.84 156.81 693.21 146.91 702.55C137.01 711.89 122.39 725.42 114.41 732.55C106.43 739.68 92.4898 752.1 83.4098 760.07C74.3298 768.04 61.5098 779.22 54.9098 784.92C48.3098 790.62 37.0598 800.28 29.9098 806.41C22.7598 812.54 13.4298 820.41 9.16978 823.83C4.90978 827.25 0.999776 830.9 0.489776 831.83C0.241305 832.287 0.100442 832.795 0.0779138 833.315C0.0553858 833.835 0.151787 834.353 0.359776 834.83C0.799776 835.54 12.3598 840.16 26.0398 845.08C39.7198 850 57.5998 856.31 65.8498 859C74.0998 861.69 87.1498 865.67 94.8498 867.89C102.55 870.11 116.28 873.63 125.35 875.72L141.85 879.52H166.85C184.26 879.52 193.22 879.09 196.35 878.19C199.756 877.12 203.095 875.848 206.35 874.38C209.35 873.01 212.66 871.45 213.65 870.93C214.036 870.683 214.468 870.518 214.921 870.445C215.374 870.373 215.836 870.395 216.28 870.51C216.75 870.79 217.43 870.02 217.81 868.79C218.19 867.56 218.91 864.97 219.42 863.05C219.93 861.13 221.49 853.93 222.89 847.05C224.29 840.17 226.58 829.38 227.97 823.05C229.36 816.72 231.38 808.27 232.45 804.25C233.527 800.169 234.863 796.161 236.45 792.25C237.6 789.66 239.45 785.52 240.65 783.05C242.468 779.435 244.495 775.929 246.72 772.55C248.89 769.25 253.17 763.18 256.23 759.05C259.29 754.92 262.02 751.33 262.31 751.05C262.6 750.77 265.12 747.85 267.91 744.55C270.267 741.832 272.483 738.995 274.55 736.05C275.41 734.68 277.99 725.9 280.29 716.55C282.59 707.2 285.34 696.4 286.42 692.55C287.5 688.7 289.33 682.4 290.5 678.55C291.67 674.7 294.87 664.8 297.59 656.55C300.31 648.3 304.16 637.95 306.14 633.55C308.12 629.15 311.44 622.69 313.53 619.2C315.62 615.71 317.33 612.68 317.33 612.48C317.33 612.28 320.12 608.38 323.52 603.83C326.92 599.28 332.21 592.63 335.27 589.05C338.33 585.47 343.15 580.05 345.98 577.05C348.81 574.05 352.49 570.05 354.16 568.27C355.864 566.406 357.131 564.185 357.87 561.77C358.25 560 359.46 555.85 360.57 552.55C361.68 549.25 363.24 544.97 364.06 543.05C364.88 541.13 366.81 536.85 368.37 533.55C370.37 529.26 371.5 524.69 372.3 517.55C372.92 512.05 373.91 506.43 374.52 505.05C375.13 503.67 376.34 501.05 377.22 499.25C378.936 496.27 380.946 493.469 383.22 490.89L387.65 485.82L386.33 481.19C385.6 478.64 384.18 473.4 383.17 469.55C381.851 463.944 381.226 458.198 381.31 452.44C381.31 443.58 381.02 441.96 379.1 439.44C377.89 437.85 375.53 434.97 373.85 433.03C372.17 431.09 368.99 427.31 366.79 424.63C364.59 421.95 362.34 419.26 361.79 418.63C361.24 418 359.22 415.51 357.31 413.03C355.4 410.55 353.62 408.3 353.31 408.03C353 407.76 351.43 405.75 349.79 403.58C348.15 401.41 344.21 396.26 341.04 392.14C337.87 388.02 335.29 384.28 335.29 383.84C335.288 383.732 335.266 383.626 335.224 383.527C335.181 383.428 335.12 383.338 335.043 383.263C334.965 383.188 334.874 383.128 334.774 383.088C334.674 383.048 334.567 383.029 334.46 383.03C333.916 383.076 333.402 383.301 333 383.67V383.67ZM551.1 390.58C550.79 391.09 549.1 394.12 547.34 397.32L544.16 403.13L543.27 433.05C542.78 449.51 541.89 466.05 541.27 469.74C540.65 473.43 539.37 479.66 538.36 483.52C537.439 487.202 536.317 490.831 535 494.39C534.042 496.874 533.498 499.499 533.39 502.16C533.53 504.889 534.21 507.564 535.39 510.03C536.5 512.2 539.94 518.15 543.03 523.24C546.12 528.33 549.4 533.85 550.31 535.5C551.582 538.218 552.552 541.069 553.2 544C553.89 547 554.88 551.08 555.39 553C555.9 554.92 557.74 562.44 559.47 569.71C561.84 579.64 563.47 584.19 566 588.05C567.239 589.827 568.365 591.681 569.37 593.6C570.509 595.889 571.771 598.116 573.15 600.27C575.23 603.7 577.93 608.63 579.15 611.27C580.823 615.168 582.223 619.177 583.34 623.27C584.42 627.27 586.08 634.13 587.03 638.53C588.29 644.43 588.76 651.53 588.81 665.53C588.81 678.53 588.43 686.44 587.48 690.53C586.71 693.83 584.69 701.7 583 708.03C581.31 714.36 580 721.5 580 723.91C580.238 727.862 580.695 731.798 581.37 735.7C582.212 741.365 582.437 747.106 582.04 752.82C581.744 757.909 581.16 762.977 580.29 768C579.65 771 576.65 779.58 573.64 787C570.63 794.42 567.56 801.85 566.83 803.5C566.097 805.182 565.453 806.901 564.9 808.65C564.3 810.73 564.64 810.82 575.07 811.44C581 811.78 603.63 814.76 625.35 818.05C647.07 821.34 666.11 824.05 667.64 824.05C669.17 824.05 670.64 823.36 671.03 822.44C671.42 821.52 670.44 816.51 669.03 811.19C667.62 805.87 664.33 794.33 661.83 785.53C659.33 776.73 656.21 764.81 654.91 759.03C653.61 753.25 652.01 746.73 651.37 744.53C650.684 742.141 650.123 739.717 649.69 737.27C649.41 735.48 648.77 733.76 648.28 733.46C647.79 733.16 647.39 731.62 647.39 730.03C647.39 728.44 646.99 726.9 646.5 726.6C646.01 726.3 645.38 724.6 645.1 722.79C644.82 720.98 644.1 717.95 643.58 716.03C643.06 714.11 641.46 708.7 640.1 704.03C638.74 699.36 636.39 691.03 634.89 685.53C633.39 680.03 631.79 674.18 631.34 672.53C630.89 670.88 630.01 667.53 629.34 665.03C628.816 662.9 628.127 660.813 627.28 658.79C626.699 657.468 626.389 656.043 626.37 654.6C626.37 653.25 625.92 651.87 625.37 651.53C624.82 651.19 624.37 649.62 624.37 648.03C624.37 646.44 623.98 644.9 623.49 644.6C623 644.3 622.39 642.81 622.12 641.29C621.126 637.464 619.924 633.695 618.52 630C616.82 625.33 610.72 604.63 604.96 584C599.2 563.37 590.82 533.45 586.32 517.5C581.82 501.55 577.78 487.15 577.32 485.5C576.86 483.85 572.44 467.88 567.45 450C562.46 432.12 557.67 415.25 556.82 412.5C555.699 408.557 554.821 404.55 554.19 400.5C553.768 397.493 553.164 394.514 552.38 391.58C552 390.54 551.43 390.07 551.12 390.58H551.1ZM454.1 611.26C453.3 612.49 450.26 618 447.35 623.5C444.44 629 440.5 636 438.59 639C436.68 642 431.91 648.77 427.98 654C422.165 661.37 415.946 668.41 409.35 675.09C403.03 681.47 393.8 689.95 388.85 693.92L378.22 702.47C377.33 703.19 371.8 707.07 365.95 711.09C358.18 716.42 355.15 719.09 354.75 720.95C354.409 722.498 353.964 724.021 353.42 725.51C352.99 726.61 351.74 729.31 350.65 731.51C349.56 733.71 347.65 737.31 346.4 739.51C345.15 741.71 342.54 745.76 340.59 748.51C338.64 751.26 334.31 756.89 330.97 761.01C327.63 765.13 323.77 769.66 322.38 771.01C320.99 772.36 318.33 775.19 316.48 777.19C313.48 780.44 312.92 781.92 311.31 791.64C310.31 797.64 309.31 803.13 309.02 803.96C308.73 804.79 308.26 807.02 307.92 808.96C307.42 811.85 307.53 812.17 308.59 810.88C309.28 810.04 313.23 808.31 317.35 807.05C321.47 805.79 325.75 804.4 326.85 803.96C328.983 803.238 331.152 802.631 333.35 802.14L344.35 799.6C350.295 798.451 356.307 797.68 362.35 797.29C368.68 796.85 383.75 796.63 395.85 796.8C407.95 796.97 423.7 797.53 430.85 798.05C438 798.57 452.55 798.99 463.17 798.99C475.65 798.99 483.23 799.39 484.6 800.12C486.46 801.12 487.15 800.78 490.16 797.37C492.05 795.24 496.85 789.89 500.81 785.49C504.77 781.09 509.47 775.83 511.24 773.79C514.47 770.1 514.47 770.08 513.32 764.29C512.68 761.1 511.79 756.91 511.32 754.99C510.85 753.07 509.97 749.69 509.32 747.49C508.67 745.29 507.93 742.25 507.64 740.73C507.35 739.21 506.71 737.73 506.22 737.42C505.907 737.087 505.667 736.693 505.514 736.263C505.361 735.833 505.298 735.375 505.33 734.92C505.287 733.647 504.998 732.394 504.48 731.23C504.01 730.23 500.7 723.64 497.13 716.49C493.56 709.34 488.39 699.21 485.65 693.99C482.91 688.77 478.49 680.44 475.81 675.49C473.13 670.54 468.96 662.55 466.53 657.73C464.433 653.699 462.632 649.521 461.14 645.23C460.6 643.17 459.75 639.02 459.27 635.99C458.79 632.96 458.08 625.86 457.71 620.21C457.34 614.56 456.71 609.72 456.3 609.47C455.89 609.22 454.92 610 454.11 611.26H454.1Z" fill="#F67206"/>
<path d="M441.973 198.509C471.907 192.912 492.057 166.357 486.979 139.197C481.901 112.037 453.518 94.5564 423.584 100.153C393.65 105.75 373.5 132.304 378.578 159.464C383.656 186.625 412.039 204.105 441.973 198.509Z" fill="white"/>
<path d="M442.064 197.493C471.508 191.945 491.312 165.876 486.298 139.266C481.285 112.656 453.352 95.5809 423.908 101.128C394.465 106.676 374.661 132.745 379.674 159.355C384.688 185.965 412.621 203.04 442.064 197.493Z" fill="black"/>
<path d="M379.22 145.68C381.76 124.91 398.67 106.62 422.3 101.5C451.57 95.15 480.09 111.43 486 137.85C491.91 164.27 472.95 190.85 443.67 197.21C414.39 203.57 385.87 187.28 379.97 160.85C378.852 155.874 378.599 150.742 379.22 145.68Z" fill="#F67206"/>
<path d="M377.79 129.72L377.55 173.23C377.941 173.912 378.112 174.698 378.04 175.48C378.135 176.617 378.391 177.735 378.8 178.8C379.07 179.8 379.19 180.73 379.41 181.69C379.601 182.161 379.745 182.651 379.84 183.15V183.15C379.915 183.342 379.975 183.539 380.02 183.74L484.12 184.31L484.42 130.31L377.79 129.72Z" fill="black"/>
<path d="M473.185 134.689L382.906 171.274L403.187 221.321L493.466 184.736L473.185 134.689Z" fill="black"/>
<path d="M474.903 106.92L382.001 144.568L403.383 197.331L496.285 159.683L474.903 106.92Z" fill="black"/>
<path fill-rule="evenodd" clip-rule="evenodd" d="M565.5 5.53C562.118 9.54872 558.442 13.3092 554.5 16.78C550.89 19.93 547.03 23.32 545.93 24.31C544.83 25.3 538.63 29.81 532.15 34.31C525.67 38.81 518.47 43.58 516.15 44.91C513.83 46.24 511.03 47.82 509.93 48.43C508.83 49.04 505.99 50.8 503.63 52.32C501.389 53.7706 499.05 55.0637 496.63 56.19C495.14 56.79 492.46 57.91 490.68 58.69C488.9 59.47 488 60.5 487 61L486 61.5C485 62 480.79 64.77 476.94 67C473.09 69.23 467.01 72.58 463.44 74.44C459.87 76.3 454.44 79.17 451.44 80.83C448.44 82.49 431.54 91.03 413.94 99.83C396.34 108.63 378.11 117.59 373.44 119.83L352.94 129.51C346.34 132.61 340.15 135.59 339.2 136.11C338.513 136.526 337.773 136.845 337 137.06C335.637 137.477 334.301 137.978 333 138.56C332 139.06 329.22 140.86 326.22 142.37C323.644 143.73 320.932 144.816 318.13 145.61C316.353 145.938 314.605 146.403 312.9 147C311.886 147.429 310.835 147.763 309.76 148C309.45 148 307.67 146.32 305.76 144.26L302.34 140.53L294.8 144.46C288.25 147.87 287.32 148.7 287.7 150.7C287.94 151.96 287.7 153 287.2 153C286.7 153 287.13 154.46 288.2 156.25C289.27 158.04 292.53 164 295.45 169.5L303.92 185.44C305.66 188.71 307.74 191.79 308.54 192.3C309.59 192.96 311.81 192.06 316.37 189.11C319.87 186.85 323.54 185 324.52 185C324.967 185.017 325.412 184.936 325.825 184.764C326.238 184.591 326.608 184.33 326.91 184C327.23 183.47 326.57 181.22 325.44 179L323.38 175L325.97 174C327.4 173.45 325.97 174 329.97 172.51L331.09 171.92L340.04 167.37C344.37 165.46 351.28 162.52 355.41 160.83C359.54 159.14 366.28 156.53 370.41 155.02C374.54 153.51 384.41 149.71 392.41 146.58C400.41 143.45 410.51 139.58 414.91 137.87C419.31 136.16 425.38 134.01 428.41 132.99C431.44 131.97 441.11 128.58 449.91 125.48C458.71 122.38 468.83 118.93 472.41 117.82C475.86 116.781 479.235 115.504 482.51 114C484.51 113 490.1 110.77 495.01 109C499.92 107.23 506.54 105 509.73 104C512.92 103 519.25 100.34 523.81 98.2C529.3 95.5432 534.614 92.537 539.72 89.2C544.459 85.9319 548.9 82.2509 552.99 78.2C556.456 74.5231 559.664 70.6103 562.59 66.49C564.552 63.6563 566.319 60.6929 567.88 57.62C568.62 55.95 569.98 52.57 570.88 50.1C572.319 45.3571 573.386 40.509 574.07 35.6C575.31 27.34 575.37 23.92 574.4 16.09C573.923 11.8017 573.198 7.54465 572.23 3.34C571.73 1.46 571 0 570.6 0C570.2 0 567.93 2.49 565.5 5.53ZM502.74 65.7C500.168 67.0712 497.668 68.5732 495.25 70.2C491.79 72.44 484.45 76.51 478.95 79.2C473.45 81.89 470.23 83.82 469 84.45C467.77 85.08 469.84 83.67 467 85.45L463 88L450.68 93.87C444.5 97.1 446.5 96 440 99L433 103C429.44 104.72 433 103 429.44 104.72C425.88 106.44 418.09 110.18 412.17 112.94C406.25 115.7 401.41 118 401 118L398 119.5L391.44 123C388.44 124.25 381.21 127.59 375.44 130.41C369.67 133.23 362.91 136.41 360.44 137.41C357.97 138.41 350.99 141.76 344.94 144.77C338.89 147.78 333.39 150.7 332.72 151.24C332.376 151.508 331.978 151.698 331.553 151.796C331.128 151.895 330.687 151.9 330.26 151.81C329.58 151.58 337.55 147.21 347.98 142.11L370.79 130.92C372.91 129.92 375.79 128.4 377.29 127.64C378.79 126.88 388.29 122.15 398.44 117.13C408.59 112.11 398.44 117.13 417 108.03L424.5 104.03C428.253 101.718 432.166 99.6758 436.21 97.92C439.91 96.25 445.86 93.46 449.44 91.72C456.27 87.78 449.61 91.72 456.27 87.78L457.82 87.03L462 85C462.686 84.7062 463.353 84.3723 464 84L466 83C474 79.5 466.49 82.61 474 79.5L480.5 76L491.82 69.61C497.82 66.49 502.98 64.23 503.32 64.61C503.66 64.99 503.4 65.47 502.74 65.7Z" fill="#443E79"/>
<path d="M351.68 257.59L366.65 257.77L353.5 253.87L351.68 257.59Z" fill="#F67206"/>
<path d="M368.698 252.525L362.878 252.424L362.786 257.693L368.606 257.795L368.698 252.525Z" fill="#F67206"/>
<path fill-rule="evenodd" clip-rule="evenodd" d="M434.812 325.342C428.647 327.185 419.116 332.115 414.951 335.615C413.318 336.987 412.2 338.694 412.106 339.955C411.74 344.902 408.659 348.866 403.539 350.978L401.35 351.881L406.215 377.801L411.081 403.72L414.969 403.964C419.54 404.251 422.732 406.2 424.914 410.035C426.332 412.525 427.108 412.944 432.724 414.244C441.281 416.223 447.765 416.531 456.881 415.39C470.629 413.67 482.863 409.119 491.516 402.508C494.578 400.169 495.427 399.068 495.181 397.752C494.389 393.51 498.912 387.745 503.745 386.835L505.735 386.46L504.063 377.063C503.144 371.895 501.006 360.094 499.312 350.837L496.232 334.008L493.853 333.963C488.072 333.854 482.486 330.336 481.723 326.322C480.947 322.249 457.413 320.02 444.486 322.795C442.235 323.278 437.882 324.425 434.812 325.342Z" fill="#1663AB"/>
<path fill-rule="evenodd" clip-rule="evenodd" d="M436.254 328.973C430.602 330.663 421.865 335.182 418.047 338.391C416.55 339.649 415.525 341.213 415.439 342.37C415.103 346.905 412.279 350.538 407.586 352.474L405.578 353.302L410.038 377.063L414.499 400.824L418.063 401.048C422.253 401.311 425.18 403.097 427.18 406.613C428.48 408.896 429.192 409.28 434.34 410.471C442.185 412.286 448.128 412.568 456.485 411.522C469.088 409.945 480.303 405.774 488.236 399.713C491.043 397.568 491.821 396.559 491.596 395.353C490.87 391.464 495.016 386.18 499.446 385.345L501.27 385.001L499.738 376.387C498.896 371.649 496.936 360.831 495.383 352.345L492.559 336.917L490.378 336.876C485.078 336.776 479.958 333.552 479.258 329.872C478.547 326.138 456.972 324.094 445.123 326.639C443.058 327.081 439.068 328.132 436.254 328.973Z" fill="white"/>
<path d="M411.822 354.431L411.822 354.431L410.373 355.029L414.353 376.23L418.336 397.449L421.188 397.628C423.157 397.751 424.857 398.235 426.308 399.121C427.76 400.007 428.935 401.279 429.879 402.938L411.822 354.431ZM411.822 354.431C416.238 352.609 418.948 349.157 419.27 344.82C419.3 344.411 419.505 343.876 419.893 343.283C420.277 342.698 420.816 342.092 421.463 341.548M411.822 354.431L421.463 341.548M484.646 396.516L484.646 396.516C485.922 395.541 486.689 394.859 487.115 394.306C487.518 393.783 487.584 393.421 487.513 393.041C487.146 391.077 488.011 388.848 489.421 387.051C490.838 385.245 492.885 383.767 495.049 383.36L496.22 383.139L494.914 375.795C494.148 371.489 492.367 361.655 490.955 353.941L488.462 340.318L486.888 340.288C484.386 340.241 481.929 339.458 480.008 338.248C478.099 337.046 476.651 335.375 476.297 333.514C476.258 333.31 476.043 333.008 475.454 332.654C474.887 332.314 474.071 331.986 473.041 331.684C470.985 331.081 468.171 330.607 465.022 330.309C458.721 329.712 451.18 329.829 445.861 330.971L445.861 330.971C444.001 331.369 440.387 332.321 437.837 333.083L484.646 396.516ZM484.646 396.516C477.522 401.959 467.416 405.727 456.024 407.153C448.482 408.096 443.138 407.842 436.066 406.206C433.708 405.66 432.448 405.315 431.624 404.871M484.646 396.516L431.624 404.871M421.463 341.548C423.157 340.125 425.973 338.388 429.022 336.811M421.463 341.548L429.022 336.811M429.022 336.811C432.068 335.236 435.308 333.839 437.837 333.083L429.022 336.811ZM431.624 404.871C430.853 404.456 430.453 403.947 429.879 402.938L431.624 404.871ZM445.758 330.489L445.756 330.482L445.758 330.489Z" fill="white" stroke="#232323"/>
<rect x="396.703" y="384.381" width="9.61618" height="8.34187" transform="rotate(5.36857 396.703 384.381)" fill="#0B0C0E"/>
<rect x="403.06" y="378.154" width="9.61618" height="8.34187" transform="rotate(5.36857 403.06 378.154)" fill="#0B0C0E"/>
<rect x="402.671" y="371.885" width="9.61618" height="8.34187" transform="rotate(5.36857 402.671 371.885)" fill="#0B0C0E"/>
<rect x="401.986" y="372.418" width="10.1292" height="8.34187" transform="rotate(-13.2044 401.986 372.418)" fill="#0B0C0E"/>
<rect x="408.54" y="369.194" width="3.89528" height="8.56962" transform="rotate(-10.6705 408.54 369.194)" fill="white"/>
<rect width="9.56361" height="7.7651" transform="matrix(-0.921548 0.388264 0.426175 0.904641 513.863 363.259)" fill="#0B0C0E"/>
<rect width="9.56361" height="7.7651" transform="matrix(-0.902136 0.431451 0.468519 0.883453 505.486 360.013)" fill="#0B0C0E"/>
<rect width="9.56361" height="7.7651" transform="matrix(-0.902136 0.431451 0.468519 0.883453 503.653 354.492)" fill="#0B0C0E"/>
<rect width="10.1731" height="7.71673" transform="matrix(-0.989458 0.144821 0.137982 0.990435 504.48 354.709)" fill="#0B0C0E"/>
<rect width="2.96394" height="7.71673" transform="matrix(0.982708 -0.185161 -0.178368 -0.983964 494.1 361.718)" fill="white"/>
<path fill-rule="evenodd" clip-rule="evenodd" d="M390.143 370.796C390.616 373.281 394.06 376.649 397.861 378.341C399.754 379.184 401.368 380.147 401.448 380.482C401.811 382.008 390.872 387.761 385.745 388.742C381.561 389.542 382.331 390.527 388.217 391.907C391.819 392.75 398.36 393.027 401.665 392.476C402.038 392.413 403.208 388.097 404.263 382.884C406.235 373.138 406.301 373.037 410.548 373.345C412.542 373.49 412.631 373.35 412.06 370.974L411.453 368.448L404.863 369.115C401.238 369.483 396.375 369.648 394.055 369.485C389.951 369.195 389.845 369.23 390.143 370.796ZM508.446 348.634C506.027 349.68 501.726 350.989 498.886 351.543L493.725 352.55L494.302 355.613C494.957 359.088 494.98 359.096 497.78 356.907C498.912 356.022 500.182 355.43 500.603 355.592C501.023 355.753 502.297 357.579 503.433 359.649C506.572 365.369 511.497 372.192 512.369 372.028C516.653 371.22 526.05 365.763 527.426 363.285C528.092 362.082 527.769 361.979 524.822 362.453C522.972 362.749 521.233 363.067 520.959 363.158C520.039 363.465 510.181 361.989 509.062 361.377C508.224 360.918 508.67 359.858 510.919 356.978C514.523 352.36 516.32 345.778 513.786 346.473C513.269 346.616 510.865 347.588 508.446 348.634ZM405.782 380.021C405.192 383.076 404.079 388.128 403.308 391.251C402.137 395.995 402.109 397.008 403.135 397.415C405.104 398.197 413.685 399.243 419.726 399.437C451.232 400.453 480.116 394.033 506.268 380.203C510.135 378.159 513.242 376.192 513.174 375.832C513.107 375.473 511.211 372.736 508.963 369.75C506.714 366.765 503.943 362.625 502.806 360.551C501.667 358.476 500.493 356.824 500.197 356.88C499.901 356.936 497.839 358.033 495.616 359.319C481.409 367.533 468.64 371.884 450.206 374.795C435.74 377.078 430.555 377.165 416.718 375.351C411.998 374.733 407.848 374.281 407.496 374.347C407.143 374.413 406.373 376.966 405.782 380.021Z" fill="#ED7035"/>
<path fill-rule="evenodd" clip-rule="evenodd" d="M447.26 376.74C446.026 378.193 447.46 380.678 449.33 380.326C449.675 380.261 450.308 379.9 450.736 379.524C451.631 378.74 452.66 378.721 453.977 379.466L454.858 379.964L454.066 381.164C453.168 382.524 451.304 387.69 451.444 388.43C451.494 388.698 451.96 389.35 452.478 389.879C453.621 391.045 454.734 393.246 454.827 394.526C454.876 395.201 454.596 395.751 453.84 396.469C452.852 397.407 452.812 397.544 453.205 398.609C453.559 399.569 453.534 400.355 452.883 400.478C452.5 400.55 452.492 400.96 452.64 401.395C452.863 402.053 452.968 402.047 457.922 401.114L462.976 400.161L462.828 399.376C462.728 398.841 462.472 398.59 462.026 398.589C460.974 398.587 459.411 397.733 459.291 397.094C459.23 396.77 459.659 394.896 460.244 392.929C461.362 389.171 461.622 386.263 461.099 383.342C460.821 381.789 460.861 381.577 461.473 381.369C461.851 381.241 462.379 380.713 462.649 380.196C463.079 379.37 463.07 379.187 462.577 378.678C461.88 377.959 460.222 378.049 459.789 378.829C459.349 379.622 458.847 379.64 457.91 378.9C457.232 378.364 451.871 376.885 451.235 377.005C451.124 377.026 451.016 376.696 450.418 376.359C449.127 375.631 448.095 375.756 447.26 376.74ZM432.671 384.349C433.337 388.377 434.112 391.845 434.389 392.034C434.579 392.164 435.565 392.069 436.579 391.823L438.424 391.376L437.65 387.27L436.876 383.163L434.726 383.471C432.839 383.742 432.588 383.849 432.671 384.349ZM474.498 376.323C474.452 376.576 474.774 378.472 475.215 380.538L476.015 384.293L478.068 383.906L480.121 383.52L479.348 379.413L478.574 375.306L476.578 375.585C475.123 375.788 474.559 375.988 474.498 376.323ZM428.989 386.543C428.942 386.805 429.13 387.993 429.408 389.182L429.913 391.344L431.334 391.076L432.756 390.809L432.28 388.281L431.804 385.754L430.44 385.911C429.492 386.019 429.05 386.212 428.989 386.543ZM479.92 377.026C479.774 377.83 480.446 381.095 480.846 381.523C481.067 381.76 481.673 381.761 482.559 381.528L483.93 381.166L483.454 378.639L482.978 376.112L481.5 376.292C480.367 376.431 479.997 376.603 479.92 377.026ZM422.013 390.216L422.166 391.029L425.071 390.388C427.737 389.8 427.966 389.694 427.857 389.115C427.748 388.535 427.496 388.521 424.799 388.943L421.86 389.402L422.013 390.216ZM439.129 386.648C438.934 387.718 439.571 387.725 444.925 386.717L450.276 385.708L450.128 384.919L449.979 384.129L444.599 385.143C440.187 385.974 439.203 386.245 439.129 386.648ZM463.769 382.006C463.72 382.276 463.799 382.629 463.946 382.79C464.279 383.155 473.562 381.449 473.739 380.99C473.806 380.814 473.733 380.459 473.575 380.203C473.33 379.806 472.591 379.868 468.573 380.625C464.743 381.347 463.841 381.606 463.769 382.006ZM484.936 378.004C484.756 378.99 485.376 379.095 488.224 378.558C490.995 378.036 491.064 378.004 490.836 377.33C490.615 376.681 490.429 376.665 487.814 377.069C485.578 377.414 485.01 377.599 484.936 378.004ZM459.59 386.53C459.717 387.204 459.696 388.344 459.543 389.064L459.264 390.373L457.971 389.405C456.195 388.075 456.053 386.957 457.539 386.012C458.965 385.107 459.34 385.202 459.59 386.53ZM456.18 397.945C456.239 398.259 456.136 398.83 455.951 399.215C455.685 399.766 455.344 400.114 454.977 399.867C454.62 399.626 454.734 399.089 454.898 398.421C455.143 397.423 456.02 397.097 456.18 397.945Z" fill="black"/>
<path fill-rule="evenodd" clip-rule="evenodd" d="M449.007 356.768C450.839 366.494 451.357 368.243 452.461 368.444C453.175 368.575 455.282 368.394 457.142 368.044C460.25 367.458 460.495 367.249 460.159 365.469L459.794 363.532L462.409 364.797C464.21 365.667 466.486 365.893 469.725 365.522L474.427 364.984L473.418 360.913L472.407 356.843L468.686 357.301C466.432 357.578 464.727 357.375 464.364 356.786C464.034 356.251 465.228 352.852 467.016 349.233C468.804 345.613 469.977 342.334 469.622 341.945C469.268 341.556 466.954 341.619 464.481 342.085C460.284 342.876 459.898 343.12 458.685 345.748L457.384 348.565L456.559 346.347C455.766 344.219 455.553 344.154 451.292 344.729L446.851 345.328L449.007 356.768ZM454.825 349.783L456.061 354.239L458.475 348.897C460.747 343.867 461.067 343.521 463.947 342.979C466.184 342.557 466.902 342.688 466.622 343.465C466.412 344.05 465.168 346.692 463.858 349.337C462.548 351.982 461.296 354.649 461.074 355.263C460.835 355.922 461.32 356.874 462.254 357.582C463.126 358.243 465.393 358.726 467.291 358.656C470.451 358.537 470.778 358.712 471.159 360.736C471.539 362.755 471.342 362.99 468.871 363.455C467.384 363.736 464.941 363.704 463.442 363.385C461.943 363.067 459.79 361.997 458.659 361.008L456.602 359.211L457.198 362.377C457.784 365.484 457.746 365.552 455.115 366.047L452.436 366.552L450.479 356.168L448.523 345.784L451.056 345.556C453.55 345.33 453.609 345.396 454.825 349.783Z" fill="#ED7036"/>
<path fill-rule="evenodd" clip-rule="evenodd" d="M432.839 343.425C424.272 351.819 431.874 364.99 444.582 363.769C447.129 363.524 450.062 362.932 451.101 362.453C452.724 361.704 452.462 360.378 451.983 357.838C451.677 356.213 451.384 355.335 450.641 354.92C449.897 354.505 445.592 355.475 444.826 355.619C444.061 355.763 441.764 356.196 439.778 356.174C437.792 356.151 437.215 353.089 437.215 353.089C436.226 349.69 436.804 348.806 445.304 347.205C453.804 345.603 450.11 346.299 450.11 346.299L449.617 343.683C448.705 338.846 448.375 338.698 441.425 340.008C436.138 341.004 434.744 341.559 432.839 343.425ZM447.019 342.521L447.524 345.201L442.209 346.202C437.583 347.074 436.78 347.454 436.022 349.13C434.833 351.757 435.446 354.296 437.627 355.786C439.074 356.774 440.468 356.836 444.423 356.091L448.752 355.413L449.231 357.96L449.736 360.639L445.164 361.501C438.913 362.679 435.181 361.501 432.098 357.377C429.653 354.108 429.514 350.41 431.691 346.547C433.73 342.929 435.152 342.094 441.356 340.864L446.515 339.842L447.019 342.521Z" fill="#1D68AD"/>
</g>
<defs>
<clipPath id="clip0_45_249">
<rect width="876.73" height="995.56" fill="white"/>
</clipPath>
</defs>
</svg>
